<mxfile host="app.diagrams.net" modified="2023-10-17T14:27:06.824Z" agent="Mozilla/5.0 (Windows NT 10.0; Win64; x64) AppleWebKit/537.36 (KHTML, like Gecko) Chrome/117.0.0.0 Safari/537.36" etag="o96JFWONYpURYK_L_xSH" version="22.0.4" type="device">
  <diagram name="Page-1" id="Ne6p96-eGXluJ8T5f7-t">
    <mxGraphModel dx="765" dy="381" grid="1" gridSize="10" guides="1" tooltips="1" connect="1" arrows="1" fold="1" page="1" pageScale="1" pageWidth="850" pageHeight="1100" math="0" shadow="0">
      <root>
        <mxCell id="0" />
        <mxCell id="1" parent="0" />
        <mxCell id="W9Oqele3VmDE0duMvN8R-4" style="edgeStyle=orthogonalEdgeStyle;rounded=0;orthogonalLoop=1;jettySize=auto;html=1;entryX=0.5;entryY=0;entryDx=0;entryDy=0;" edge="1" parent="1" source="W9Oqele3VmDE0duMvN8R-1" target="W9Oqele3VmDE0duMvN8R-2">
          <mxGeometry relative="1" as="geometry" />
        </mxCell>
        <mxCell id="W9Oqele3VmDE0duMvN8R-1" value="Start" style="ellipse;whiteSpace=wrap;html=1;" vertex="1" parent="1">
          <mxGeometry x="40" y="70" width="120" height="80" as="geometry" />
        </mxCell>
        <mxCell id="W9Oqele3VmDE0duMvN8R-6" style="edgeStyle=orthogonalEdgeStyle;rounded=0;orthogonalLoop=1;jettySize=auto;html=1;entryX=0.5;entryY=0;entryDx=0;entryDy=0;" edge="1" parent="1" source="W9Oqele3VmDE0duMvN8R-2" target="W9Oqele3VmDE0duMvN8R-5">
          <mxGeometry relative="1" as="geometry" />
        </mxCell>
        <mxCell id="W9Oqele3VmDE0duMvN8R-2" value="Button_panel_outside Lit (Enables)" style="rounded=1;whiteSpace=wrap;html=1;" vertex="1" parent="1">
          <mxGeometry x="40" y="190" width="120" height="60" as="geometry" />
        </mxCell>
        <mxCell id="W9Oqele3VmDE0duMvN8R-3" value="Idle" style="text;html=1;align=center;verticalAlign=middle;resizable=0;points=[];autosize=1;strokeColor=none;fillColor=none;fontSize=22;" vertex="1" parent="1">
          <mxGeometry x="10" y="15" width="60" height="40" as="geometry" />
        </mxCell>
        <mxCell id="W9Oqele3VmDE0duMvN8R-9" style="edgeStyle=orthogonalEdgeStyle;rounded=0;orthogonalLoop=1;jettySize=auto;html=1;entryX=0.5;entryY=0;entryDx=0;entryDy=0;" edge="1" parent="1" source="W9Oqele3VmDE0duMvN8R-5" target="W9Oqele3VmDE0duMvN8R-7">
          <mxGeometry relative="1" as="geometry" />
        </mxCell>
        <mxCell id="W9Oqele3VmDE0duMvN8R-5" value="Button_panel_inside Unlit (Disables)" style="rounded=1;whiteSpace=wrap;html=1;" vertex="1" parent="1">
          <mxGeometry x="40" y="300" width="120" height="60" as="geometry" />
        </mxCell>
        <mxCell id="W9Oqele3VmDE0duMvN8R-10" style="edgeStyle=orthogonalEdgeStyle;rounded=0;orthogonalLoop=1;jettySize=auto;html=1;entryX=0.5;entryY=0;entryDx=0;entryDy=0;" edge="1" parent="1" source="W9Oqele3VmDE0duMvN8R-7" target="W9Oqele3VmDE0duMvN8R-8">
          <mxGeometry relative="1" as="geometry" />
        </mxCell>
        <mxCell id="W9Oqele3VmDE0duMvN8R-7" value="Display_outside&lt;br&gt;(Display curr_level)" style="rounded=1;whiteSpace=wrap;html=1;" vertex="1" parent="1">
          <mxGeometry x="40" y="410" width="120" height="60" as="geometry" />
        </mxCell>
        <mxCell id="W9Oqele3VmDE0duMvN8R-12" style="edgeStyle=orthogonalEdgeStyle;rounded=0;orthogonalLoop=1;jettySize=auto;html=1;entryX=0.5;entryY=0;entryDx=0;entryDy=0;" edge="1" parent="1" source="W9Oqele3VmDE0duMvN8R-8" target="W9Oqele3VmDE0duMvN8R-11">
          <mxGeometry relative="1" as="geometry" />
        </mxCell>
        <mxCell id="W9Oqele3VmDE0duMvN8R-8" value="Display_inside&lt;br&gt;(Disable)" style="rounded=1;whiteSpace=wrap;html=1;" vertex="1" parent="1">
          <mxGeometry x="40" y="520" width="120" height="60" as="geometry" />
        </mxCell>
        <mxCell id="W9Oqele3VmDE0duMvN8R-11" value="End" style="ellipse;whiteSpace=wrap;html=1;" vertex="1" parent="1">
          <mxGeometry x="40" y="630" width="120" height="80" as="geometry" />
        </mxCell>
        <mxCell id="W9Oqele3VmDE0duMvN8R-13" value="Moving" style="text;html=1;align=center;verticalAlign=middle;resizable=0;points=[];autosize=1;strokeColor=none;fillColor=none;fontSize=22;" vertex="1" parent="1">
          <mxGeometry x="225" y="15" width="90" height="40" as="geometry" />
        </mxCell>
        <mxCell id="W9Oqele3VmDE0duMvN8R-16" style="edgeStyle=orthogonalEdgeStyle;rounded=0;orthogonalLoop=1;jettySize=auto;html=1;entryX=0.5;entryY=0;entryDx=0;entryDy=0;" edge="1" parent="1" source="W9Oqele3VmDE0duMvN8R-14" target="W9Oqele3VmDE0duMvN8R-15">
          <mxGeometry relative="1" as="geometry" />
        </mxCell>
        <mxCell id="W9Oqele3VmDE0duMvN8R-14" value="Start" style="ellipse;whiteSpace=wrap;html=1;" vertex="1" parent="1">
          <mxGeometry x="270" y="70" width="120" height="80" as="geometry" />
        </mxCell>
        <mxCell id="W9Oqele3VmDE0duMvN8R-15" value="" style="rounded=1;whiteSpace=wrap;html=1;" vertex="1" parent="1">
          <mxGeometry x="270" y="190" width="120" height="60" as="geometry" />
        </mxCell>
      </root>
    </mxGraphModel>
  </diagram>
</mxfile>
